<svg width="1280" height="720" viewBox="0 0 1280 720" fill="none" xmlns="http://www.w3.org/2000/svg">
  <rect width="1280" height="720" fill="#F5F7F4"/>
  <rect x="0" y="0" width="1280" height="88" fill="#FCFCFB"/>
  <line x1="0" y1="88.5" x2="1280" y2="88.5" stroke="#E5E7EB"/>
  <rect x="52" y="20" width="36" height="36" rx="10" fill="#059669"/>
  <path d="M64 38C69.3333 32.6667 77.3333 32 82 34.5C79 43 70.5 47.5 62 45C61.5 40 62.5 39.5 64 38Z" stroke="#D1FAE5" stroke-width="2.5" stroke-linecap="round" stroke-linejoin="round"/>
  <text x="98" y="46" fill="#111827" font-family="Segoe UI, Arial, sans-serif" font-size="28" font-weight="700">SmartSeason</text>
  <rect x="1048" y="16" width="182" height="46" rx="23" fill="#F0FDF4" stroke="#A7F3D0"/>
  <circle cx="1081" cy="39" r="17" fill="#059669"/>
  <text x="1074" y="46" fill="#ffffff" font-family="Segoe UI, Arial, sans-serif" font-size="18" font-weight="700">S</text>
  <text x="1110" y="46" fill="#1F2937" font-family="Segoe UI, Arial, sans-serif" font-size="16" font-weight="600">SmartSeason</text>
  <path d="M1211 36L1218 43L1225 36" stroke="#6B7280" stroke-width="2.2" stroke-linecap="round" stroke-linejoin="round"/>
  <rect x="30" y="134" width="292" height="42" rx="21" fill="#E8F7ED"/>
  <path d="M49 155L54 160L63 149" stroke="#059669" stroke-width="2.5" stroke-linecap="round" stroke-linejoin="round"/>
  <text x="74" y="160" fill="#047857" font-family="Segoe UI, Arial, sans-serif" font-size="18" font-weight="500">Trusted by 15,000+ Farms Worldwide</text>
  <text x="30" y="260" fill="#0F172A" font-family="Segoe UI, Arial, sans-serif" font-size="58" font-weight="800">Grow Smarter,</text>
  <text x="30" y="326" fill="#0F172A" font-family="Segoe UI, Arial, sans-serif" font-size="58" font-weight="800">Harvest </text>
  <text x="285" y="326" fill="#10B981" font-family="Segoe UI, Arial, sans-serif" font-size="58" font-weight="800">Better</text>
  <text x="30" y="404" fill="#475569" font-family="Segoe UI, Arial, sans-serif" font-size="24" font-weight="400">The all-in-one field monitoring platform that combines real-time</text>
  <text x="30" y="445" fill="#475569" font-family="Segoe UI, Arial, sans-serif" font-size="24" font-weight="400">data, workforce management, and AI insights to maximize your</text>
  <text x="30" y="486" fill="#475569" font-family="Segoe UI, Arial, sans-serif" font-size="24" font-weight="400">crop yields.</text>
  <rect x="30" y="545" width="170" height="56" rx="10" fill="#059669"/>
  <text x="60" y="580" fill="#ffffff" font-family="Segoe UI, Arial, sans-serif" font-size="20" font-weight="700">Start Now</text>
  <path d="M155 573H173" stroke="#ffffff" stroke-width="2.5" stroke-linecap="round"/>
  <path d="M165 565L173 573L165 581" stroke="#ffffff" stroke-width="2.5" stroke-linecap="round" stroke-linejoin="round"/>
  <rect x="663" y="88" width="617" height="544" fill="url(#fieldBg)"/>
  <rect x="690" y="117" width="562" height="500" rx="22" fill="url(#photoBg)"/>
  <ellipse cx="925" cy="400" rx="208" ry="120" fill="#65A30D" opacity="0.45"/>
  <ellipse cx="1020" cy="270" rx="190" ry="95" fill="#166534" opacity="0.32"/>
  <ellipse cx="1118" cy="495" rx="130" ry="96" fill="#84CC16" opacity="0.4"/>
  <path d="M990 194C1054 196 1113 235 1148 289C1173 327 1187 390 1187 445C1187 515 1122 575 1041 575C964 575 912 532 895 472C877 412 889 315 924 256C941 228 964 207 990 194Z" fill="#D7C5B9"/>
  <path d="M986 222C1028 222 1066 242 1095 281C1115 308 1131 356 1135 394C1107 416 1044 440 979 442C937 443 905 437 882 426C880 394 885 351 896 317C914 263 947 222 986 222Z" fill="#E5D7CC"/>
  <path d="M913 319C944 304 978 297 1013 297C1042 297 1071 303 1097 315L1110 506C1078 533 1029 551 981 551C943 551 914 540 894 524L913 319Z" fill="#D1D5DB"/>
  <path d="M903 430C930 446 963 454 1003 454C1045 454 1083 444 1114 426L1132 500C1095 531 1042 551 986 551C943 551 908 540 884 521L903 430Z" fill="#94A3B8" opacity="0.25"/>
  <rect x="783" y="431" width="155" height="100" rx="9" fill="#4B5563"/>
  <rect x="790" y="438" width="141" height="86" rx="6" fill="#9CA3AF"/>
  <path d="M786 534L858 553H945L931 534H786Z" fill="#374151"/>
  <defs>
    <linearGradient id="fieldBg" x1="663" y1="88" x2="1280" y2="632" gradientUnits="userSpaceOnUse">
      <stop stop-color="#EEF2F7"/>
      <stop offset="1" stop-color="#E5F3E8"/>
    </linearGradient>
    <linearGradient id="photoBg" x1="690" y1="117" x2="1252" y2="617" gradientUnits="userSpaceOnUse">
      <stop stop-color="#113B28"/>
      <stop offset="0.45" stop-color="#6AA84F"/>
      <stop offset="1" stop-color="#D8E5C3"/>
    </linearGradient>
  </defs>
</svg>
